<svg width="15" height="14" viewBox="0 0 15 14" fill="none" xmlns="http://www.w3.org/2000/svg">
<path d="M0 14V2L2.5 0H14.5V12L12 14H0Z" fill="#BAE2FF"/>
<path d="M1 4.48V6.01C1 6.25853 1.20147 6.46 1.45 6.46C1.69853 6.46 1.9 6.25853 1.9 6.01V5.2C1.9 4.50412 2.46412 3.94 3.16 3.94H4.48C4.87765 3.94 5.2 3.61765 5.2 3.22C5.2 2.82236 4.87765 2.5 4.48 2.5H2.98C1.88648 2.5 1 3.38648 1 4.48Z" fill="#6DC2FF"/>
<path d="M10.3 9.16V4.54C10.3 4.20863 10.5686 3.94 10.9 3.94C11.2314 3.94 11.5 4.20863 11.5 4.54V9.64C11.5 11.4625 10.0225 12.94 8.2 12.94H5.44C5.14177 12.94 4.9 12.6982 4.9 12.4C4.9 12.1018 5.14177 11.86 5.44 11.86H7.6C9.09117 11.86 10.3 10.6512 10.3 9.16Z" fill="#E2F3FF"/>
<path d="M1 4.48V6.01C1 6.25853 1.20147 6.46 1.45 6.46C1.69853 6.46 1.9 6.25853 1.9 6.01V5.2C1.9 4.50412 2.46412 3.94 3.16 3.94H4.48C4.87765 3.94 5.2 3.61765 5.2 3.22C5.2 2.82236 4.87765 2.5 4.48 2.5H2.98C1.88648 2.5 1 3.38648 1 4.48Z" fill="#E2F3FF"/>
<path d="M14.2914 9.59816L14.2384 8.1336C14.2298 7.8957 14.1845 7.70423 14.1372 7.70594C14.0899 7.70765 14.0585 7.90189 14.0671 8.13979L14.0951 8.91515C14.1192 9.58126 14.0314 10.1251 13.8989 10.1299L13.6476 10.139C13.5719 10.1417 13.5217 10.4525 13.5355 10.8332C13.5492 11.2138 13.6218 11.5202 13.6974 11.5174L13.983 11.5071C14.1911 11.4996 14.3292 10.6449 14.2914 9.59816Z" fill="#9ED5FC"/>
<path d="M12.5569 5.6955L12.7167 10.1179C12.7282 10.4351 12.6864 10.6941 12.6233 10.6964C12.5602 10.6986 12.4998 10.4433 12.4883 10.1262L12.3119 5.24428C12.2488 3.49969 12.4789 2.07526 12.8259 2.06272L13.3512 2.04374C13.408 2.04168 13.4624 2.27145 13.4727 2.55693C13.483 2.8424 13.4454 3.07549 13.3886 3.07754L12.9774 3.0924C12.6936 3.10266 12.5053 4.26811 12.5569 5.6955Z" fill="#9ED5FC"/>
</svg>
